<?xml version="1.0" standalone="no"?>
<!DOCTYPE svg PUBLIC "-//W3C//DTD SVG 1.1//EN" "http://www.w3.org/Graphics/SVG/1.1/DTD/svg11.dtd" >
<svg xmlns="http://www.w3.org/2000/svg" xmlns:xlink="http://www.w3.org/1999/xlink" version="1.1">
<metadata></metadata>
<defs>
<font id="yugslymedium" horiz-adv-x="18" >
<font-face units-per-em="2048" ascent="1638" descent="-410" />
<missing-glyph horiz-adv-x="860" />
<glyph horiz-adv-x="0" />
<glyph unicode="&#xd;" horiz-adv-x="681" />
<glyph unicode=" "  horiz-adv-x="860" />
<glyph unicode="&#x09;" horiz-adv-x="860" />
<glyph unicode="&#xa0;" horiz-adv-x="860" />
<glyph unicode="!" horiz-adv-x="368" d="M23 276q45 473 75 549q18 49 49 196.5t37 219.5q11 90 23 123q6 23 19.5 28t52.5 5q57 0 68 -20.5t-11 -84.5q-23 -72 -27 -137q-10 -111 -76 -352q-29 -106 -47 -221t-8 -125t-2 -62q-16 -55 -22 -123q-6 -51 -13.5 -63t-38.5 -21q-55 -16 -70.5 0.5t-8.5 87.5z" />
<glyph unicode="&#x22;" />
<glyph unicode="#" />
<glyph unicode="$" />
<glyph unicode="%" />
<glyph unicode="&#x26;" />
<glyph unicode="(" horiz-adv-x="491" d="M21 666.5q2 54.5 22 150.5q29 143 61 203q23 47 101 140.5t139 148.5q41 35 49 34q6 0 25.5 -20t37 -43t17.5 -31q0 -10 -20 -22q-25 -14 -118 -121t-112 -139q-16 -37 -45 -162q-20 -86 -22 -139.5t10 -214.5q12 -184 32.5 -278.5t67.5 -178.5q35 -55 31 -92 q-4 -25 -13.5 -32t-39.5 -9q-33 -2 -46.5 6t-43.5 53q-55 88 -83 206t-40 316q-12 170 -10 224.5z" />
<glyph unicode=")" horiz-adv-x="503" d="M23.5 -39q11.5 33 76.5 125q80 113 109 174q16 45 57 127q111 236 74 469q-16 98 -56 216t-72 160t-32 64.5t35 38.5q41 23 61.5 14.5t55.5 -61.5q57 -82 105 -257t48 -298q0 -37 -8 -94t-22.5 -114.5t-33 -112t-34.5 -86.5q-33 -61 -42 -92t-69.5 -126.5t-107.5 -152.5 q-35 -43 -62.5 -52t-62.5 9q-31 16 -19.5 49z" />
<glyph unicode="*" />
<glyph unicode="+" />
<glyph unicode="," horiz-adv-x="288" d="M20 -45q-4 27 34 150.5t77 211.5q49 102 55 103q6 0 47 -29q35 -27 37 -58.5t-30 -101.5q-33 -78 -62 -180q-12 -43 -25.5 -78.5t-19.5 -44.5q-16 -16 -62 -5t-51 32z" />
<glyph unicode="-" />
<glyph unicode="." horiz-adv-x="178" d="M20 262q0 41 3.5 64.5t12.5 41t29.5 11.5t53.5 -33q27 -23 34 -40t7 -54q0 -39 -6.5 -51.5t-26.5 -20.5q-29 -12 -70 -2q-27 6 -32 18.5t-5 65.5z" />
<glyph unicode="/" />
<glyph unicode="0" horiz-adv-x="569" d="M20 911l3 338l34 62q33 57 78 88q41 25 112.5 25.5t121.5 -23.5q27 -12 57.5 -46t56 -82t41.5 -97q23 -68 27 -342q2 -188 -2 -242.5t-27 -116.5q-25 -70 -74 -135.5t-92 -87.5q-37 -20 -109.5 -19.5t-80.5 21.5q-6 18 -27 18q-23 0 -51.5 61.5t-46.5 145.5 q-20 96 -21 432zM156 913q0 -305 22.5 -432t77.5 -127q20 0 46 19.5t49.5 54.5t37.5 76q18 45 22.5 102.5t2.5 229.5q0 203 -11.5 271t-52.5 134q-20 33 -34.5 41t-57.5 8q-74 0 -88 -52t-14 -325z" />
<glyph unicode="1" horiz-adv-x="225" d="M25 281q-12 59 4 313q12 184 26 469q15 305 35 336q6 14 62 10q41 -4 48 -11t5 -40q-23 -453 -43 -785q-12 -236 -6 -262q10 -45 -9.5 -68.5t-62.5 -21.5q-33 4 -43 13.5t-16 46.5z" />
<glyph unicode="2" horiz-adv-x="540" d="M31 276q-39 45 51 170q45 61 136 260t110 277q18 78 20 126t-14 110q-18 74 -42 69.5t-44 -82.5q-8 -39 -18.5 -48t-39.5 -13q-49 -4 -66.5 15.5t-6.5 68.5q8 53 33.5 104t54.5 70q25 18 83 21t68 -15q10 -12 39 -25q10 -4 20.5 -18t19.5 -34.5t18.5 -46t15.5 -53.5 t10 -57.5t4 -54.5q0 -162 -135 -446q-80 -170 -80 -182q0 -8 -40 -66.5t-40 -67.5q0 -14 150 -20q125 -4 156.5 -22.5t25.5 -82.5q-2 -33 -8 -39t-29 -4q-47 8 -235 9q-143 0 -172 4t-29 24q0 27 -16 49z" />
<glyph unicode="3" horiz-adv-x="534" d="M20 1253q0 37 24 93.5t48 76.5q19 15 72 35q53 18 114.5 17.5t88.5 -19.5q41 -29 74.5 -91t33.5 -108q0 -119 -65 -251l-31 -60l37 -37q72 -70 93 -213t-20 -276q-31 -96 -53 -103q-25 -8 -30 -28q-4 -14 -22.5 -27.5t-50.5 -28t-34 -14.5q-37 -18 -93 -11t-100 36 q-47 35 -54 60.5t24 55.5q27 31 44 32t42 -25q43 -47 113.5 -13.5t92 114.5t9.5 190.5t-47 142.5q-18 18 -76 33q-31 4 -42 13t-11 23q0 31 -8 39q-39 39 49 117q68 59 91 151.5t-16 139.5q-16 18 -29.5 22t-49.5 -2q-45 -6 -64.5 -27.5t-19.5 -62.5q0 -31 -17 -55 q-12 -18 -22.5 -18t-44.5 14q-33 14 -41.5 25.5t-8.5 39.5z" />
<glyph unicode="4" horiz-adv-x="641" d="M20 1241q1 140 11 148q12 12 36.5 7t51.5 -26q16 -12 23.5 -24.5t10.5 -32t5 -60.5l4 -90l53 -8q53 -10 64 -2q10 4 10 102q0 82 13 104.5t56 14.5q41 -8 52.5 -32.5t13.5 -110.5l4 -109l84 6q68 2 80 -7t22 -72l9 -50q-96 -12 -195 -24l-4 -359l-2 -358l-51 8 q-63 12 -66 15q-16 4 -16 350v49q0 248 -13.5 291t-91.5 49h-14q-45 4 -67.5 13t-45.5 32q-18 18 -25 33.5t-9.5 42t-2.5 100.5z" />
<glyph unicode="5" horiz-adv-x="548" d="M21.5 419.5q7.5 22.5 64.5 35.5q16 0 23.5 2t17.5 -6.5t18.5 -18.5t24.5 -37q41 -70 57 -69q18 0 62 24q55 25 77.5 89.5t22.5 189.5q-2 166 -26.5 207t-102.5 2q-61 -31 -87 -16.5t-44 5.5q-14 -4 -21.5 0t-14.5 29t-12 62.5t-11 111.5q-18 195 -16.5 236t32.5 51 q12 6 22.5 15t10.5 18q0 12 25.5 17t99.5 7q47 2 178 8q57 2 67 -14q8 -14 5.5 -55t-13.5 -53q-8 -8 -149 -21l-139 -8l4 -68q2 -57 10 -123l6 -57l86 8q49 6 82 -1t55.5 -27.5t42.5 -59.5q25 -47 41.5 -172t5.5 -188q-16 -121 -70.5 -206t-121.5 -99q-41 -8 -55 -27 q-14 -18 -60 -18q-86 0 -168 141q-37 63 -29.5 85.5z" />
<glyph unicode="6" horiz-adv-x="532" d="M28.5 714q20.5 179 80.5 349q27 74 82 190.5t75 141.5q12 16 22.5 14t37.5 -27q59 -57 4 -147q-33 -55 -71 -154.5t-64.5 -193.5t-26.5 -139q0 -20 5 -24.5t20 3.5q41 23 139 16q59 -4 114.5 -77.5t65.5 -165.5q8 -63 -23.5 -136t-76.5 -96q-43 -23 -99.5 -21.5 t-101.5 25.5q-45 23 -98.5 80.5t-71.5 102.5q-33 80 -12.5 259zM172 498q18 -43 64 -82q37 -31 69.5 -34t52.5 21q18 23 16.5 81t-24.5 89q-18 31 -56 34t-65 -25q-25 -27 -41 -27q-43 0 -16 -57z" />
<glyph unicode="7" horiz-adv-x="573" d="M20 1343q0 47 86.5 63.5t182.5 9.5t147 -25q35 -12 53.5 -46t34.5 -49l31 -26l-45 -166q-37 -143 -74 -248q-57 -168 -109.5 -335t-52.5 -189q0 -57 -39.5 -79t-84.5 11q-16 12 -18.5 26.5t7.5 63.5q12 57 78 266t107 322q31 86 59 193q12 43 16 60t1 37.5t-8 26 t-33.5 11.5t-53 7t-86.5 3q-121 4 -160 16t-39 47z" />
<glyph unicode="8" horiz-adv-x="530" d="M20.5 518q8.5 98 110.5 250l39 57l-39 80q-37 80 -36 165t38 200q33 98 53.5 132t49.5 40q49 10 86.5 3t68.5 -30.5t58 -66.5q150 -233 -41 -474q-31 -39 -35 -53t6 -45q49 -115 56 -228.5t-35 -199.5t-132 -102q-55 -10 -91 5t-83 73q-82 96 -73.5 194zM154 506 q0 -29 18 -68t41 -57q16 -14 25.5 -11t29.5 27q27 33 32 100.5t-13 145.5q-16 57 -27 57q-18 0 -62 -80.5t-44 -113.5zM229 1071q-2 -96 37 -127q14 -12 29 0q10 8 21.5 23.5t20.5 35t17 41t14.5 44t8.5 42.5q6 66 -25 119q-12 25 -26.5 39.5t-24.5 15.5t-18 -10 q-16 -31 -35 -105.5t-19 -117.5z" />
<glyph unicode="9" horiz-adv-x="559" d="M23 1090q10 80 55.5 155.5t111.5 118.5q92 63 222 -12q43 -25 69.5 -60t40 -84t17.5 -121q16 -344 -142 -669q-35 -72 -52 -103.5t-29.5 -43t-26.5 -11.5q-18 0 -37 9.5t-32 23.5t-13 26q0 8 65 148q53 102 84 201.5t15 111.5q-8 10 -97 27q-150 31 -225 160 q-20 37 -25.5 59.5t-0.5 63.5zM163 1109q-13 -50 7 -83q27 -47 63.5 -67.5t94.5 -20.5l73 -2v123q0 86 -4.5 109t-29.5 46q-33 35 -68 43q-14 4 -25.5 1t-22.5 -12t-30 -32q-45 -55 -58 -105z" />
<glyph unicode=":" horiz-adv-x="204" d="M25 299q6 53 14 72t37 35q39 25 48 25.5t26 -13.5q18 -18 16 -140t-23 -149q-16 -25 -48 -29t-48 17q-39 47 -22 182zM51 946q-2 121 12 141q12 16 66 13l55 -4l2 -121q0 -106 -10 -142t-45 -47q-23 -4 -39 -1t-25.5 22.5t-12.5 52.5t-3 86z" />
<glyph unicode=";" horiz-adv-x="448" d="M20 -6l52 76q37 53 98 153q39 63 66.5 73.5t54.5 -26.5q23 -33 17.5 -59.5t-56.5 -108.5q-59 -96 -59 -129q0 -27 -24 -50t-58 -32q-25 -6 -35 2.5t-29 45.5zM242 725l10 57q6 45 18.5 91.5t25.5 81.5t23 53q23 31 31 26q27 -14 47 -24q31 -16 32 -41t-26 -129 q-16 -63 -31.5 -80t-70.5 -25z" />
<glyph unicode="&#x3c;" />
<glyph unicode="=" />
<glyph unicode="&#x3e;" />
<glyph unicode="?" horiz-adv-x="577" d="M21 1152q2 34 8 54.5t16 38.5q20 31 83.5 77t102.5 60q57 18 102.5 11t108.5 -45q80 -49 100.5 -82t14.5 -101q-4 -53 -23.5 -97t-56.5 -86t-96 -87l-98 -74l-11 -102q-6 -113 -6 -168q0 -43 -6 -56.5t-29 -21.5q-37 -12 -67 8q-27 16 -31 61.5t6 194.5q6 70 12.5 91.5 t22.5 25.5q27 6 19 33q-6 16 10 34.5t73 61.5q150 109 150 182q0 25 -45 62t-74 37q-25 0 -86 -41l-63 -43v-99q0 -70 -5.5 -87t-27.5 -27q-33 -16 -68 8q-20 14 -26 30.5t-8 61.5q-4 51 -2 85zM106 273.5q3 50.5 15 64.5q18 18 63 12l47 -4v-147l-53 6q-51 2 -63 10 t-9 58.5z" />
<glyph unicode="@" />
<glyph unicode="A" horiz-adv-x="847" d="M28 354q16 100 122 602q12 55 73 240q49 139 88 201.5t84 70.5q23 4 43 4q30 0 54 -9q40 -15 76 -60t67 -143.5t61.5 -234.5t67.5 -351q41 -221 57 -303q8 -41 8 -65q0 -18 -4 -26q-10 -20 -59 -20q-47 0 -62.5 20.5t-23.5 100.5q-10 68 -22.5 137.5t-26 116.5t-21.5 53 q-14 10 -154 26q-102 12 -152 13q-18 0 -30 -2q-27 -2 -36 -24.5t-31 -133.5q-20 -98 -45 -233q-12 -76 -27 -105q-14 -23 -45 -22.5t-53 24.5q-15 14 -15 58q0 27 6 65zM281 909q-4 -29 5 -36t64 -13q68 -8 158 -10q53 0 67.5 4t14.5 18q0 35 -38 185.5t-58 195.5 q-35 82 -58 84q-10 0 -18 -10q-8 -12 -41 -104.5t-63.5 -190.5t-32.5 -123z" />
<glyph unicode="B" horiz-adv-x="471" d="M23 293q-3 20 -3 117q0 145 7 460q4 190 7 286.5t7 158t8 79t12 23.5q23 18 23 31q0 17 25 29q26 16 61 16q30 0 66 -11q80 -24 131 -81q55 -59 67 -94t12 -129q0 -68 -10 -116t-31.5 -96t-64.5 -110l-39 -57l64 -64q55 -55 75 -109q14 -39 13 -89q0 -20 -2 -43 q-14 -111 -69.5 -187t-145.5 -108q-50 -18 -82 -18q-44 0 -56 32q-14 33 -39 33q-27 0 -36 47zM153 350q3 -24 23 -24q33 0 62.5 23.5t47.5 58.5q18 36 28 76q5 23 6 46q0 17 -3 33q-7 39 -32 66q-35 37 -71 54t-46 1q-12 -18 -14 -186q-2 -71 -2 -110q0 -28 1 -38z M165 1092v-30q0 -171 11 -179q12 -8 36 21.5t58 96.5q27 49 34 81t7 92q0 66 -6 86t-39 53q-29 27 -44 36t-25.5 3t-18.5 -29q-12 -31 -13 -231z" />
<glyph unicode="C" horiz-adv-x="514" d="M27 1022q14 178 35.5 252t72.5 125l55 55l93 -6q68 -4 88 -11t51 -42q74 -80 74 -226q0 -66 -16.5 -89t-48.5 -5.5t-46 43t-25 86.5q-10 70 -27.5 91.5t-60.5 21.5q-27 0 -39 -7t-24 -30q-39 -74 -51 -284q-4 -75 -3 -149q1 -131 13 -257q20 -196 61 -232q17 -16 36 -16 q14 0 29 10q34 23 46 82q6 23 10 33t11.5 18.5t16.5 10.5t30 6t35 4q24 0 31 -10q5 -7 5 -25q0 -22 -8 -59q-29 -135 -133 -185q-37 -17 -74 -17q-67 0 -131 58q-33 29 -46 55.5t-26 88.5q-41 197 -41 418q0 94 7 192z" />
<glyph unicode="D" horiz-adv-x="557" d="M20 821v217q0 335 5 357q7 28 34 28q16 0 39 28t37 28q29 0 90.5 -43t91.5 -82q33 -43 86.5 -158t90.5 -221q44 -127 43 -252q1 -27 -1 -55q-12 -152 -83 -252q-41 -55 -120 -109.5t-147 -73.5q-45 -12 -57 -11t-29 20q-23 29 -49 34q-16 2 -20 39q-6 55 -11 506z M156 829q2 -422 14 -444q4 -10 16 -8q27 6 86 49q121 86 131 274q2 22 2 44q0 16 -1 31q-3 36 -10 65.5t-27 89.5q-44 122 -97 235q-68 146 -99 146h-3q-6 0 -8 -8q-4 -12 -4 -273v-201z" />
<glyph unicode="E" horiz-adv-x="571" d="M20 330q-1 9 0 25q0 47 5 157q8 162 16 492q4 184 9 235t22 66q27 20 30 38q8 20 90 38t168 20q80 0 107 12q25 9 43 9q12 0 20 -4q20 -11 23 -56v-11q0 -47 -31 -63q-35 -16 -172 -24q-145 -10 -157 -23q-11 -11 -11 -160v-26l4 -172q174 -8 349 -15v-120 q-180 -6 -361 -13l-12 -164q-7 -97 -7 -143q0 -31 3 -39q6 -14 30 -18q16 -3 49 -3q17 0 39 1q113 0 185 12q34 4 55 4q26 0 32 -6q5 -5 5 -21q0 -17 -6 -47l-12 -57l-74 -10q-82 -10 -211 -15q-30 -1 -52 -1q-51 0 -69 4q-25 4 -39 22q-20 27 -49 37q-19 7 -21 39z" />
<glyph unicode="F" horiz-adv-x="571" d="M20 774q0 358 3.5 438t19.5 105q25 35 33 53q0 6 5 9t15 5t25.5 4.5t42 3.5t59.5 2t80 1q65 1 109 1q66 0 86 -2q32 -3 43 -24q12 -23 12 -46q0 -9 -2 -17l-4 -37l-185 -8q-186 -8 -197 -20q-9 -11 -9 -137v-50l4 -172q168 -8 334 -15l4 -47q1 -9 1 -16q0 -35 -16 -47 q-16 -16 -172 -19l-151 -4l-8 -235q-8 -233 -11 -238q-2 -4 -57 0l-59 4z" />
<glyph unicode="G" horiz-adv-x="663" d="M21 694q-1 39 -1 74q0 164 19 262q53 295 213 371q42 20 107 20q17 0 36 -1q90 -7 133 -38q37 -27 66 -83t42 -131q10 -58 10 -120q0 -19 -1 -38q-4 -74 -23 -96q-10 -12 -30 -12q-15 0 -35 7q-27 10 -33 28.5t-12 111.5q-10 135 -29 178q-10 23 -18 33t-21.5 15t-40.5 9 q-19 3 -36 3q-34 0 -59 -11q-38 -16 -66 -62q-49 -74 -65.5 -172t-16.5 -307v-135t3 -83t7 -50t12 -31q14 -23 38 -42t53.5 -29.5t58.5 -10.5q31 0 64.5 35t55 89t21.5 106q0 35 -19.5 46t-86.5 17l-74 8l6 54q2 51 10 65q3 7 35 7q27 0 74 -5q45 -4 67.5 -8t36 -10 t21.5 -21q25 -29 24 -16q0 12 21 -6q19 -15 19 -96v-9q-1 -88 -21 -159q-25 -78 -99 -154q-37 -37 -55 -52.5t-33.5 -20.5t-44.5 -5q-111 0 -191.5 49t-111.5 135q-25 74 -30 291z" />
<glyph unicode="H" horiz-adv-x="610" d="M20 307v328q2 684 41 747q20 29 52 29q25 0 36 -7q11 -6 18 -32q6 -22 6 -63v-11q-1 -48 -3 -133q-10 -207 -12 -229q-2 -18 18.5 -22.5t124.5 -4.5h148l6 215q4 92 7 139.5t12 77t20.5 36.5t35.5 7q37 0 50 -30q12 -37 12 -257q0 -98 -2 -233q-2 -29 -2 -65 q-8 -524 -25 -547q-15 -17 -56 -17q-8 0 -18 1l-53 4l6 127q6 117 7 262v133h-295l-4 -234q-2 -244 -25 -252q-8 -4 -21 7q-18 14 -51 20z" />
<glyph unicode="I" horiz-adv-x="180" d="M23 844q8 516 26 528q23 14 50.5 10t45.5 -22q15 -16 17 -101q1 -33 0 -104q0 -114 -2 -328q-10 -506 -23 -524q-14 -18 -51 -16t-53 20q-12 14 -12 266q0 112 2 271z" />
<glyph unicode="J" horiz-adv-x="714" d="M20.5 455.5q-0.5 11.5 1 19.5t4.5 16.5t7 15.5t8 13t9 15.5t7 15.5q12 31 27 31q14 0 33.5 -33t27.5 -68q18 -76 94 -113q34 -16 61 -16q33 0 56 25q48 51 48 445q0 44 -1 93l-4 289l-254 13l-4 45q-2 18 -2 32q0 21 4 33q9 21 142 21q105 0 286 -13q74 -6 91.5 -13 t25.5 -30q9 -22 9 -39q0 -53 -87 -59l-63 -4l-10 -361q-10 -367 -21 -423q-20 -115 -121 -162q-42 -22 -70 -22q-26 0 -40 18t-39 4q-11 -7 -24 -7q-39 0 -101 53q-84 70 -98 140q-2 14 -2.5 25.5z" />
<glyph unicode="K" horiz-adv-x="569" d="M25 1339q-3 13 -3 24q0 24 17 34q25 14 59.5 13t48.5 -15q16 -16 17 -138q0 -29 1 -58.5t2 -55t3 -49t4 -41t5 -30.5t6 -20.5t8 -7.5q12 0 86.5 97.5t109.5 160.5q45 78 51 78q2 0 20.5 -9t39 -19.5t36 -20.5t15.5 -12q0 -23 -111.5 -182.5t-142.5 -178.5q-10 -6 -35 -49 q-12 -29 -11 -40t19 -38q35 -51 88 -153q61 -119 127 -230q12 -18 22.5 -35.5t19 -32t13.5 -25.5t8 -18l3 -7q-4 -4 -59 -27q-41 -16 -50.5 -15t-29.5 25q-23 29 -121 209q-92 174 -103.5 174t-11.5 -186q0 -131 -3 -161t-23 -40q-23 -12 -46 -12q-9 0 -18 2l-37 4l-8 520 q-8 522 -16 565z" />
<glyph unicode="L" horiz-adv-x="485" d="M22 326q-1 6 -1 22q0 27 4 82q12 220 20 498q5 159 5 238q0 59 -3 73q-3 19 -3 42q0 31 5 69q6 43 14.5 52t38.5 9q64 0 74 -49q7 -31 7 -152q0 -69 -3 -168q-10 -309 -10 -501v-181l59 -4q16 -2 33 -1q42 0 86 10q30 7 54 7t40 -7q25 -8 26 -14.5t-15 -22.5 q-20 -20 -21 -43q0 -33 -37 -46.5t-131 -17.5h-29q-73 1 -109 9q-42 10 -42 38q0 8 -10.5 17.5t-22.5 13.5q-25 9 -29 27z" />
<glyph unicode="M" horiz-adv-x="815" d="M20 260q2 70 25 186q16 84 43 274.5t33 227.5q16 94 24 236l9 139q72 4 139 8l8 -57q6 -31 42 -229.5t46 -266.5q16 -116 33 -116q4 0 12 10q10 20 52 234t59 331q8 84 22 108.5t51 28.5q10 2 22.5 3t21 3t10.5 2q8 2 21.5 -17t21.5 -48t28 -254q43 -496 50 -688l3 -160 l-42 -12q-20 -4 -35 -4q-22 0 -35 8q-14 6 -19.5 18.5t-7.5 41t-2 98.5t-7 180t-16 193t-16 83q-8 0 -40.5 -133t-55.5 -262q-27 -147 -39 -162q-12 -12 -67 -12q-41 0 -51.5 8t-22.5 47q-8 27 -26.5 118t-35 185.5t-20.5 134.5q-5 48 -13 48q-9 0 -20 -72q-4 -23 -6 -49 q-2 -8 -69 -412q-4 -35 -15.5 -54.5t-31 -23.5t-46.5 6q-25 8 -31 19.5t-6 52.5z" />
<glyph unicode="N" horiz-adv-x="659" d="M20 1348l52 16q37 12 55 12q8 0 12 -2q23 -14 98.5 -231t144.5 -428t75 -215q8 0 18 96t18.5 239.5t10.5 268.5q2 186 6 231t22 51q23 10 42 10q12 0 23 -4q28 -10 34 -42q9 -41 9 -196v-32q-1 -184 -11 -301q-12 -135 -25 -379q-10 -238 -22 -247q-10 -10 -70 -21 q-41 -6 -52 -2t-22 31q-14 33 -39 69q-25 37 -75 185.5t-90.5 276.5t-49.5 128q-10 0 -12 -323l-4 -324l-41 -10q-18 -5 -31 -5q-20 0 -28 13q-23 35 -31 338l-2 115q-10 385 -12 555z" />
<glyph unicode="O" horiz-adv-x="636" d="M20 711q0 154 15.5 299t36.5 192q27 57 102.5 138.5t116.5 93.5q51 17 92 17q45 0 79 -20q64 -38 100 -154t50 -333q6 -98 6 -181q0 -118 -12 -206q-20 -149 -74 -180q-16 -10 -16 -38t-22 -36q-25 -10 -48 -31q-10 -12 -44.5 -24t-78.5 -20.5t-77 -8.5q-39 0 -86 28.5 t-64 63.5q-31 57 -53.5 179t-22.5 221zM159 818v-52q0 -236 42 -354q10 -35 21 -43.5t48 -8.5q70 2 100.5 17.5t57.5 60.5q56 94 56 320q0 80 -7 178q-20 301 -71 364q-20 20 -52 11.5t-70 -45.5t-69 -88q-51 -86 -56 -360z" />
<glyph unicode="P" horiz-adv-x="538" d="M22 1334q3 14 23 20q31 6 43 39q10 27 34 29q3 0 6 1q28 0 114 -18q102 -18 157.5 -58t85.5 -116q34 -81 34 -164q0 -90 -40 -184q-35 -80 -84 -124t-131 -65l-63 -16l-4 -201q-2 -150 -7.5 -179.5t-31.5 -51.5q-25 -18 -35 -19.5t-29 11.5q-18 12 -23 39.5t-8 130.5 q-4 150 -18 468t-20 392q-4 35 -4 53q0 9 1 13zM172 1262q-2 -8 -2 -41q0 -56 6 -185q6 -139 12.5 -174t22.5 -37q10 -2 20 -2q54 0 100 64q54 76 54 176q-2 151 -88 190q-41 20 -80 22.5t-45 -13.5z" />
<glyph unicode="Q" horiz-adv-x="677" d="M26 843q13 214 54 380q14 53 29.5 80.5t48.5 60.5q53 53 71 55q19 5 27 11q12 14 59 5.5t78 -28.5q70 -47 99.5 -117.5t46.5 -228.5q14 -127 14 -246q0 -78 -6 -153q-15 -191 -58 -281l-34 -74l65 -57q70 -61 105 -78q27 -14 32 -26.5t-2 -43.5q-10 -49 -20 -61 q-7 -7 -19 -7q-48 0 -174 109q-66 55 -86 65.5t-57 4.5q-13 -2 -26 -2l-146 68q-35 33 -55.5 78.5t-36.5 140.5q-14 83 -14 198q0 68 5 147zM164 868q-7 -91 -7 -169q0 -111 15 -197q25 -148 82 -148q16 0 16 8q0 10 -26 89q-17 51 -17 74q0 9 3 14q6 13 38 13q11 0 25 -1 q53 -2 65 -33q13 -29 22 -29q16 0 23 74q8 80 9 258q-3 369 -58 443q-20 29 -49 36t-43 -12q-39 -51 -60.5 -142t-37.5 -278z" />
<glyph unicode="R" horiz-adv-x="618" d="M22 774q-2 152 -3 262q0 279 14 289q20 14 20 35t8 29q9 9 62 9q17 0 39 -1q90 -4 123 -19q66 -27 113 -85q46 -59 66 -125q13 -44 12 -89q0 -23 -3 -47q-10 -70 -53 -117q-33 -35 -60.5 -51t-83.5 -35q-25 -6 7 -53q39 -57 131 -180q10 -12 28 -37q145 -197 156 -229 q4 -25 -25 -51l-6 -7q-31 -29 -54.5 -17.5t-76.5 87.5q-47 68 -108.5 149.5t-107.5 139t-52 57.5q-8 0 -8 -102q0 -51 2 -127l4 -234l-51 -10q-21 -6 -37 -6q-20 0 -29 10q-19 18 -27 555zM156 1253q-3 -6 -3 -35q0 -39 5 -120l6 -146l59 9q57 8 83 30.5t30 69.5q2 17 2 33 q0 87 -66 135q-31 25 -69.5 33t-46.5 -9z" />
<glyph unicode="S" horiz-adv-x="606" d="M51 555q35 10 35 27q0 8 12.5 11t27.5 -1t24 -14q14 -18 18 -97q6 -70 26.5 -90t94.5 -31q43 -6 62.5 -2t39.5 19q55 41 65 157q2 20 1 38q0 89 -37 149q-20 35 -32.5 40t-59.5 -1q-43 -4 -59.5 0t-45.5 31q-41 39 -57 73.5t-35 126.5q-16 76 -16 144v15q2 75 19.5 136.5 t51 106.5t80.5 65q30 15 70 15q8 0 18 -1q52 -4 86 -26q37 -25 71 -81t50 -122q14 -53 14 -68.5t-16 -31.5q-20 -23 -51 -26t-45 18q-12 14 -29 75q-24 84 -60 117q-18 17 -36 17q-17 0 -33 -16q-33 -32 -49 -116q-6 -45 -6 -88q0 -30 3 -60q7 -72 31 -123q21 -43 46 -43 q4 0 8 1q23 4 41 -16t51 -13q31 8 58.5 -17.5t62.5 -90.5q16 -29 23.5 -51.5t10.5 -51t3 -77.5q0 -139 -37 -216t-121 -122q-34 -16 -60 -20q-11 -2 -27 -2q-21 0 -52 3q-119 12 -172 52t-80 139q-18 75 -18 100q0 26 30 39z" />
<glyph unicode="T" horiz-adv-x="655" d="M20.5 1313.5q-0.5 9.5 14.5 36.5q19 39 37 49q13 9 84 9q92 0 280 -15l201 -15v-121q-100 -8 -201 -14l-6 -252q-8 -199 -49 -645l-9 -106l-50 -4h-12q-46 0 -54 30q-4 15 -5 56q0 52 7 147q23 303 33 557l8 223l-35 15q-39 14 -121 14t-106 16q-16 10 -16.5 19.5z" />
<glyph unicode="U" horiz-adv-x="561" d="M21 946v124q0 283 8 304q10 23 55 24h4q42 0 58 -20q11 -14 11 -128q0 -56 -3 -136q-3 -102 -3 -198q0 -143 7 -271q4 -86 8 -131t11 -80t20.5 -47t29 -16t45.5 -2q27 2 39.5 7t21.5 17.5t23 40.5q23 41 30 96.5t17 231.5q8 158 8 274q0 68 -3 121q-4 59 -4 97q0 48 6 64 q8 24 52 24q8 0 17 -1l64 -4l-4 -352q-2 -340 -17 -450q-25 -180 -127 -261q-31 -27 -54.5 -34t-68.5 -7q-63 0 -105 18.5t-85 67.5q-23 27 -33 54.5t-16 83.5q-10 86 -12 489z" />
<glyph unicode="V" horiz-adv-x="784" d="M20 1333l31 25q31 27 55 26q23 0 45.5 -29.5t22.5 -58t45 -221.5q115 -477 115 -516q0 -18 4 -34.5t9 -27t11 -10.5q20 0 140 375q131 416 131 443q1 27 25 40q19 10 47 10q9 0 18 -1q37 -2 43 -9.5t2 -39.5q-4 -63 -150 -523q-145 -449 -198 -499q-18 -20 -26.5 -21.5 t-27.5 14.5q-25 25 -45 17q-18 -6 -32 10q-20 23 -52 119t-32 129q0 41 -17 80q-12 35 -39 164q-35 170 -75 333z" />
<glyph unicode="W" horiz-adv-x="942" d="M22.5 1310q3.5 11 30.5 25q35 18 47 21q6 2 17.5 -9.5t22 -27.5t17.5 -34.5t7 -29.5q0 -27 20 -161q10 -53 35 -211t35 -217q6 -40 14 -40q10 0 23 48q23 84 67 352q35 193 35 244q1 43 17 52q7 4 20 4q18 0 49 -7l53 -10l23 -152q10 -80 40 -219t57.5 -247.5 t33.5 -108.5q10 0 70 546q12 113 29.5 148t68.5 43q21 3 36 3q20 0 28 -6q12 -11 -3 -56q-16 -45 -28 -160q-55 -512 -62 -664q-4 -66 -6 -104.5t-5 -63t-7 -34t-12 -11.5q-27 -8 -97 -41h-2q-14 0 -46 71q-34 77 -71.5 194.5t-60.5 224.5q-37 164 -47 164q-8 0 -20 -64 q-2 -2 -28 -132t-50.5 -238.5t-34.5 -127.5q-10 -18 -78 -22q-47 -4 -59.5 0t-20.5 24q-14 35 -34.5 154t-26.5 199q-10 109 -50 355.5t-44 275.5q-6 39 -2.5 50z" />
<glyph unicode="X" horiz-adv-x="540" d="M22 333q-1 4 -1 10q0 40 32 149q45 156 84 256l41 108l-78 223q-61 183 -67 239q-1 8 -1 14q0 44 34 52q25 6 46 -5t38.5 -39.5t29.5 -73.5q25 -84 50.5 -150.5t35.5 -66.5t37 92q29 90 55 153q20 47 30.5 54.5t47.5 1.5q74 -10 84 -28q2 -4 2 -10q0 -20 -28 -59 q-23 -37 -67 -160.5t-60 -154.5l-37 -80l28 -82q82 -256 146 -414q1 -3 1 -6q0 -20 -46 -37q-37 -16 -47.5 -15t-24.5 22q-27 31 -74 174q-51 147 -61 147q-6 0 -34 -83t-54 -177q-23 -88 -82 -88q-54 0 -60 34z" />
<glyph unicode="Y" horiz-adv-x="571" d="M23 1257q6 18 49 40t53 12q6 -6 47 -106.5t45 -106.5q8 -8 20.5 -51.5t27 -68t30.5 -3.5q8 8 26.5 53t40 104.5t39.5 112.5q17 64 27 78q5 8 20 8q17 0 48 -11q57 -20 57 -42q0 -12 -57.5 -163.5t-98.5 -250.5q-39 -92 -125 -348l-88 -260l-57 -4q-10 -1 -19 -1 q-40 0 -47 15q-1 3 -1 8q0 53 104 342q29 78 33 95q2 7 2 17q0 66 -82 257q-95 221 -95 266q0 5 1 8z" />
<glyph unicode="Z" horiz-adv-x="749" d="M21.5 333.5q5.5 14.5 54.5 90.5q41 61 76.5 118.5t77.5 123t77 120.5q84 129 107 168q37 61 78 107q33 39 56 87t13 56q-4 6 -98 21q-256 35 -266 53q-8 10 14 27q21 16 33 49q10 23 21 26.5t48 -0.5q90 -12 197 -22q117 -14 148.5 -24.5t37.5 -37.5q2 -23 25 -47 q12 -16 8 -35.5t-37 -85.5q-53 -102 -82 -133q-49 -57 -215 -315t-166 -283q0 -16 158 -20l158 -4l4 -51q1 -13 1 -23q0 -31 -9 -41q-10 -10 -238 -12q-56 -1 -96 -1q-61 0 -87 2q-44 3 -48 13q-6 18 -33 43q-23 16 -17.5 30.5z" />
<glyph unicode="[" />
<glyph unicode="]" />
<glyph unicode="a" />
<glyph unicode="b" />
<glyph unicode="c" />
<glyph unicode="d" />
<glyph unicode="e" />
<glyph unicode="f" />
<glyph unicode="g" />
<glyph unicode="h" />
<glyph unicode="i" />
<glyph unicode="j" />
<glyph unicode="k" />
<glyph unicode="l" />
<glyph unicode="m" />
<glyph unicode="n" />
<glyph unicode="o" />
<glyph unicode="p" />
<glyph unicode="q" />
<glyph unicode="r" />
<glyph unicode="s" />
<glyph unicode="t" />
<glyph unicode="u" />
<glyph unicode="v" />
<glyph unicode="w" />
<glyph unicode="x" />
<glyph unicode="y" />
<glyph unicode="z" />
<glyph unicode="{" />
<glyph unicode="|" />
<glyph unicode="}" />
<glyph unicode="~" />
<glyph unicode="&#xa2;" />
<glyph unicode="&#xa3;" />
<glyph unicode="&#xa7;" />
<glyph unicode="&#xbf;" />
<glyph unicode="&#xc0;" />
<glyph unicode="&#xc1;" />
<glyph unicode="&#xc2;" />
<glyph unicode="&#xc4;" />
<glyph unicode="&#xc7;" />
<glyph unicode="&#xc8;" />
<glyph unicode="&#xc9;" />
<glyph unicode="&#xca;" />
<glyph unicode="&#xcb;" />
<glyph unicode="&#xce;" />
<glyph unicode="&#xcf;" />
<glyph unicode="&#xd1;" />
<glyph unicode="&#xd3;" />
<glyph unicode="&#xd4;" />
<glyph unicode="&#xd6;" />
<glyph unicode="&#xd9;" />
<glyph unicode="&#xda;" />
<glyph unicode="&#xdb;" />
<glyph unicode="&#xdc;" />
<glyph unicode="&#xdf;" />
<glyph unicode="&#xe0;" />
<glyph unicode="&#xe1;" />
<glyph unicode="&#xe2;" />
<glyph unicode="&#xe4;" />
<glyph unicode="&#xe7;" />
<glyph unicode="&#xe8;" />
<glyph unicode="&#xe9;" />
<glyph unicode="&#xea;" />
<glyph unicode="&#xeb;" />
<glyph unicode="&#xee;" />
<glyph unicode="&#xef;" />
<glyph unicode="&#xf3;" />
<glyph unicode="&#xf4;" />
<glyph unicode="&#xf6;" />
<glyph unicode="&#xf9;" />
<glyph unicode="&#xfa;" />
<glyph unicode="&#xfb;" />
<glyph unicode="&#xfc;" />
<glyph unicode="&#x2019;" />
<glyph unicode="&#x201c;" horiz-adv-x="561" d="M20.5 257.5q-0.5 29.5 3 53t8.5 30.5t15 17q31 25 56.5 21t37.5 -33q12 -37 11 -199l-5 -161h-120l-4 174q-2 68 -2.5 97.5zM391 -49l6 112q10 104 11 191q0 37 2 54.5t8 26.5t20 15q31 14 39 13t37 -19q23 -16 26 -42t-3 -152q-8 -174 -15 -185q-10 -14 -69 -14h-62z " />
<glyph unicode="&#x201d;" horiz-adv-x="628" d="M23 1282q6 16 47 31.5t61 -0.5q12 -12 30.5 -133t18.5 -197l2 -61h-119l-12 61q-16 100 -25 192.5t-3 106.5zM472.5 1110q-5.5 154 10.5 174q12 14 57.5 18.5t53.5 -8.5q6 -10 10 -172l6 -157l-51 -21q-51 -18 -65 -4q-16 16 -21.5 170z" />
<glyph unicode="&#x2022;" />
<glyph unicode="&#x20ac;" />
<glyph unicode="&#x25fc;" horiz-adv-x="1024" d="M0 0z" />
</font>
</defs>
</svg>
